<svg width="256" height="256" viewBox="0 0 256 256" fill="none" xmlns="http://www.w3.org/2000/svg">
<rect width="256" height="256" rx="25" fill="#7562E0"/>
<path d="M73.4815 252V142.909H96.5462V232.984H143.315V252H73.4815ZM217.769 174.283C217.343 169.987 215.514 166.648 212.282 164.269C209.051 161.89 204.665 160.7 199.125 160.7C195.361 160.7 192.183 161.233 189.59 162.298C186.998 163.328 185.009 164.766 183.624 166.613C182.275 168.46 181.6 170.555 181.6 172.898C181.529 174.852 181.938 176.556 182.825 178.012C183.749 179.468 185.009 180.729 186.607 181.794C188.205 182.824 190.052 183.729 192.147 184.511C194.242 185.256 196.48 185.896 198.859 186.428L208.66 188.772C213.419 189.837 217.786 191.258 221.764 193.033C225.741 194.809 229.186 196.993 232.097 199.585C235.009 202.178 237.264 205.232 238.862 208.747C240.496 212.263 241.33 216.293 241.366 220.839C241.33 227.515 239.626 233.303 236.252 238.204C232.914 243.069 228.085 246.851 221.764 249.55C215.478 252.213 207.896 253.545 199.019 253.545C190.212 253.545 182.541 252.195 176.007 249.496C169.509 246.798 164.431 242.803 160.773 237.511C157.151 232.185 155.251 225.597 155.073 217.749H177.392C177.641 221.407 178.688 224.461 180.535 226.911C182.417 229.326 184.921 231.155 188.046 232.398C191.206 233.605 194.775 234.209 198.752 234.209C202.659 234.209 206.05 233.641 208.926 232.504C211.838 231.368 214.093 229.788 215.691 227.763C217.289 225.739 218.088 223.413 218.088 220.786C218.088 218.335 217.36 216.276 215.904 214.607C214.484 212.937 212.389 211.517 209.619 210.345C206.884 209.173 203.529 208.108 199.551 207.149L187.673 204.166C178.475 201.929 171.213 198.431 165.887 193.673C160.56 188.914 157.914 182.504 157.95 174.443C157.914 167.838 159.672 162.067 163.223 157.131C166.81 152.195 171.728 148.342 177.978 145.572C184.228 142.803 191.33 141.418 199.285 141.418C207.382 141.418 214.448 142.803 220.485 145.572C226.558 148.342 231.281 152.195 234.654 157.131C238.028 162.067 239.768 167.785 239.874 174.283H217.769Z" fill="white"/>
</svg>
